<?xml version="1.0" encoding="UTF-8" standalone="no"?>
<!DOCTYPE svg PUBLIC "-//W3C//DTD SVG 1.1//EN" "http://www.w3.org/Graphics/SVG/1.1/DTD/svg11.dtd">
<svg width="100%" height="100%" viewBox="0 0 1024 1024" version="1.1" xmlns="http://www.w3.org/2000/svg"
     xml:space="preserve"
     style="fill-rule:evenodd;clip-rule:evenodd;stroke-linecap:round;stroke-linejoin:round;stroke-miterlimit:1.5;">
    <g transform="matrix(1.03317,-8.76694e-34,0,1.03317,-20.0434,-21.0186)">
        <circle cx="514.962" cy="515.906" r="360.672" style="fill:none;stroke:black;stroke-width:32.26px;"/>
    </g>
    <g transform="matrix(0.58801,-4.98954e-34,0,0.58801,209.197,208.642)">
        <circle cx="514.962" cy="515.906" r="360.672" style="fill:none;stroke:black;stroke-width:56.69px;"/>
    </g>
    <g transform="matrix(0.907871,-7.70372e-34,0,0.832408,47.1698,88.0235)">
        <path d="M278.4,512C280.601,326.559 391.942,220.101 543.492,204.08C601.388,197.96 676.715,205.127 745.6,251.281C808.389,293.35 892.007,348.381 922.45,509.337"
              style="fill:none;stroke:black;stroke-width:33.49px;"/>
    </g>
    <g transform="matrix(-0.909405,4.11178e-18,4.11178e-18,-0.87583,977.257,973.864)">
        <path d="M278.4,512C280.601,326.559 391.942,220.101 543.492,204.08C601.388,197.96 676.715,205.127 745.6,251.281C808.389,293.35 890.92,366.387 921.363,527.344"
              style="fill:none;stroke:black;stroke-width:37.34px;"/>
    </g>
</svg>
