<?xml version="1.0" encoding="UTF-8" standalone="no"?>
<svg
   version="1.1"
   width="3840px"
   height="2160px"
   style="shape-rendering:geometricPrecision; text-rendering:geometricPrecision; image-rendering:optimizeQuality; fill-rule:evenodd; clip-rule:evenodd"
   id="svg12"
   sodipodi:docname="pelo-full-text.svg"
   inkscape:version="1.4.3 (fcd0343856, 2026-01-01)"
   xmlns:inkscape="http://www.inkscape.org/namespaces/inkscape"
   xmlns:sodipodi="http://sodipodi.sourceforge.net/DTD/sodipodi-0.dtd"
   xmlns="http://www.w3.org/2000/svg"
   xmlns:svg="http://www.w3.org/2000/svg">
  <defs
     id="defs12" />
  <sodipodi:namedview
     id="namedview12"
     pagecolor="#ffffff"
     bordercolor="#000000"
     borderopacity="0.25"
     inkscape:showpageshadow="2"
     inkscape:pageopacity="0.0"
     inkscape:pagecheckerboard="0"
     inkscape:deskcolor="#d1d1d1"
     inkscape:zoom="0.28203747"
     inkscape:cx="1980.2333"
     inkscape:cy="962.63805"
     inkscape:window-width="1920"
     inkscape:window-height="1044"
     inkscape:window-x="0"
     inkscape:window-y="0"
     inkscape:window-maximized="1"
     inkscape:current-layer="svg12" />
  <g
     id="g12"
     inkscape:label="O"
     transform="matrix(1.9708305,0,0,1.9708305,-2005.4576,-1074.4334)">
    <path
       style="clip-rule:evenodd;opacity:1;fill:#000000;fill-opacity:1;fill-rule:evenodd;image-rendering:optimizeQuality;shape-rendering:geometricPrecision;text-rendering:geometricPrecision"
       fill="#f8f8f8"
       d="m 2876.5,1102.5 c 23.8,15.41 47.8,30.57 72,45.5 15.99,15.38 15.99,30.71 0,46 -23.83,15.17 -47.67,30.33 -71.5,45.5 1.22,-12.31 2.55,-24.64 4,-37 2.99,-33.55 1.49,-66.88 -4.5,-100 z"
       id="path8" />
    <path
       style="clip-rule:evenodd;opacity:1;fill:#000000;fill-opacity:1;fill-rule:evenodd;image-rendering:optimizeQuality;shape-rendering:geometricPrecision;text-rendering:geometricPrecision"
       fill="#f9f9f9"
       d="m 2599.5,899.5 c 39.81,-2.819 78.81,1.347 117,12.5 66.25,22.249 113.42,65.416 141.5,129.5 7.54,18.46 13.38,37.46 17.5,57 -0.17,1 -0.33,2 -0.5,3 -10.08,-6.62 -20.25,-13.12 -30.5,-19.5 -18.96,-6.1 -32.13,0.06 -39.5,18.5 -0.5,7.66 -0.67,15.33 -0.5,23 -66.03,-0.48 -132.03,0.02 -198,1.5 -22.28,7.21 -34.28,22.54 -36,46 2.07,24.39 14.73,40.05 38,47 65.33,0.5 130.67,0.67 196,0.5 -0.17,7.67 0,15.34 0.5,23 6.72,17.45 19.22,23.95 37.5,19.5 10.83,-6.25 21.5,-12.75 32,-19.5 -10.49,63.82 -41.16,115.66 -92,155.5 -47.17,31.8 -99.33,46.97 -156.5,45.5 -62.71,2.2 -118.55,-15.96 -167.5,-54.5 -44.5,-40.14 -72,-89.98 -82.5,-149.5 -6.54,-41.22 -7.21,-82.55 -2,-124 8.67,-59.83 34.17,-111 76.5,-153.5 42.73,-36.974 92.39,-57.474 149,-61.5 z"
       id="path6" />
  </g>
  <path
     style="clip-rule:evenodd;opacity:1;fill:#000000;fill-opacity:1;fill-rule:evenodd;stroke-width:1.97083;image-rendering:optimizeQuality;shape-rendering:geometricPrecision;text-rendering:geometricPrecision"
     fill="#f9f9f9"
     d="m 2167.7761,335.6958 c 106.4248,0 212.8496,0 319.2745,0 -0.3351,369.85986 0,739.7118 0.9854,1109.5775 0.2562,20.2602 4.8483,39.3181 13.7958,57.1542 10.9775,9.3614 23.788,14.9586 38.4313,16.752 18.3878,0.9854 36.7756,1.3205 55.1831,0.9854 0.6504,77.9858 0,155.8337 -1.9708,233.5435 -76.0148,7.5877 -152.2269,10.2286 -228.6163,7.8833 -47.3788,-3.7446 -90.0866,-19.5112 -128.1039,-47.3 -38.6678,-35.7705 -60.0118,-80.1141 -64.0521,-133.031 -1.8328,-24.2806 -3.1336,-48.5809 -3.9416,-72.9207 -0.9854,-390.8748 -1.3205,-781.76148 -0.9854,-1172.6442 z"
     id="path2"
     inkscape:label="L" />
  <path
     id="path5"
     style="clip-rule:evenodd;opacity:1;fill-rule:evenodd;stroke-width:1.97083;image-rendering:optimizeQuality;shape-rendering:geometricPrecision;text-rendering:geometricPrecision"
     d="m 1565.5025,692.92423 c -107.2884,-1.20151 -206.097,29.17681 -296.4252,91.13552 -99.6254,76.78356 -163.6774,176.96087 -192.1559,300.55165 -23.6697,113.4411 -21.6989,226.4288 5.9124,338.9828 33.6027,131.4151 109.4797,229.6413 227.6309,294.6392 106.1294,49.8029 217.1462,64.9192 333.0705,45.3292 199.4086,-36.8152 324.2213,-153.4095 374.4577,-349.8225 -103.1138,-3.9417 -206.9175,-5.2424 -311.3912,-3.9417 -5.2621,33.859 -19.7083,63.0864 -43.3582,87.702 -42.4714,32.4202 -90.4218,44.8956 -143.8707,37.4457 -46.4525,-7.6073 -81.5923,-31.5923 -105.4395,-71.9352 -21.7381,-45.5262 -34.5485,-93.4766 -38.4311,-143.8707 218.4271,-1.9708 437.1893,-2.6212 656.2866,-1.9708 -0.5716,-4.4147 0.079,-8.3563 1.9708,-11.825 14.663,-121.2061 -2.7395,-237.485 -52.227,-348.83698 -74.9901,-154.64122 -198.1671,-241.68689 -369.5308,-261.13504 -15.6729,-1.46065 -31.1724,-2.27648 -46.4993,-2.44815 z m -22.5759,234.77518 c 12.6949,-0.19492 25.8648,1.19668 39.5128,4.17264 38.8648,9.32202 68.1118,31.3362 87.702,66.02281 18.8214,33.81944 30.331,69.94474 34.4894,108.39564 h -317.3036 v -5.9124 c 7.1738,-47.4971 25.2266,-90.205 54.1979,-128.10403 29.5181,-29.1338 63.3168,-43.98992 101.4015,-44.57466 z"
     inkscape:label="E" />
  <path
     id="path3"
     style="clip-rule:evenodd;opacity:1;fill-rule:evenodd;stroke-width:1.97083;image-rendering:optimizeQuality;shape-rendering:geometricPrecision;text-rendering:geometricPrecision"
     d="M 21.541598,420.44152 V 1742.8688 H 338.84531 v -463.1451 h 167.52061 c 56.05041,1.0445 111.90375,-1.9118 167.52059,-8.8688 166.96876,-28.3405 273.70895,-123.9258 320.25997,-286.75585 18.91992,-85.92821 19.57032,-171.9865 1.97082,-258.1788 C 961.07594,585.77056 875.34481,492.1561 738.92392,445.07691 673.57118,429.27872 607.21331,421.3954 539.87003,421.42693 367.08732,420.44152 194.32431,420.11239 21.541598,420.44152 Z M 340.81615,690.44531 c 70.98931,-0.70556 141.93922,0.27985 212.84969,2.95624 73.21636,10.81395 113.61838,53.1868 121.20608,127.11857 5.63658,45.62867 -1.59636,88.98299 -21.67913,130.07482 -20.93022,31.39532 -50.15763,50.11826 -87.70196,56.16866 -13.0666,1.9117 -26.21205,3.2322 -39.41661,3.9417 -61.74612,0.9854 -123.49224,1.3204 -185.25807,0.9854 z"
     inkscape:label="P" />
</svg>
